<?xml version="1.0" encoding="utf-8"?>
<!-- Generator: Adobe Illustrator 16.2.0, SVG Export Plug-In . SVG Version: 6.00 Build 0)  -->
<!DOCTYPE svg PUBLIC "-//W3C//DTD SVG 1.1//EN" "http://www.w3.org/Graphics/SVG/1.1/DTD/svg11.dtd">
<svg version="1.1" id="Layer_1" xmlns="http://www.w3.org/2000/svg" xmlns:xlink="http://www.w3.org/1999/xlink" x="0px" y="0px"
	 width="207px" height="207px" viewBox="0 0 207 207" enable-background="new 0 0 207 207" xml:space="preserve">
<rect x="9" y="198" fill="#999999" width="90" height="9"/>
<rect x="18" y="189" fill="#999999" width="108" height="9"/>
<rect x="27" y="180" fill="#999999" width="72" height="9"/>
<rect x="27" y="189" fill="#FFCF40" width="9" height="9"/>
<rect x="63" y="198" fill="#BF9B30" width="9" height="9"/>
<rect x="45" y="180" fill="#BF9B30" width="9" height="9"/>
<rect x="90" y="198.001" fill="#FFDC73" width="9" height="8.999"/>
<rect x="99" y="198" fill="#999999" width="45" height="9"/>
<rect x="45" y="171" fill="#999999" width="45" height="9"/>
<rect x="72" y="171.001" fill="#FFCF40" width="9" height="8.999"/>
<rect x="117" y="189.001" fill="#BF9B30" width="9" height="8.999"/>
<g>
	<rect x="81" y="18" fill="#CCCCCC" width="18" height="27"/>
	<rect x="171" y="171" fill="#603813" width="18" height="9"/>
	<rect x="180" y="162" fill="#603813" width="9" height="9"/>
	<rect x="171" y="153" fill="#603813" width="9" height="9"/>
	<rect x="162" y="162" fill="#603813" width="9" height="9"/>
	<rect x="153" y="153" fill="#603813" width="9" height="9"/>
	<rect x="162" y="144" fill="#603813" width="9" height="9"/>
	<rect x="144" y="144" fill="#603813" width="9" height="9"/>
	<rect x="153" y="135" fill="#603813" width="9" height="9"/>
	<rect x="135" y="135" fill="#603813" width="9" height="9"/>
	<rect x="144" y="126" fill="#603813" width="9" height="9"/>
	<rect x="126" y="126" fill="#603813" width="9" height="9"/>
	<rect x="135" y="117" fill="#603813" width="9" height="9"/>
	<rect x="126" y="108" fill="#603813" width="9" height="9"/>
	<rect x="117" y="117" fill="#603813" width="9" height="9"/>
	<rect x="108" y="108" fill="#603813" width="9" height="9"/>
	<rect x="117" y="99" fill="#603813" width="9" height="9"/>
	<rect x="99" y="99" fill="#603813" width="9" height="9"/>
	<rect x="108" y="90" fill="#603813" width="9" height="9"/>
	<rect x="99" y="81" fill="#603813" width="9" height="9"/>
	<rect x="90" y="90" fill="#603813" width="9" height="9"/>
	<rect x="81" y="81" fill="#603813" width="9" height="9"/>
	<rect x="90" y="72" fill="#603813" width="9" height="9"/>
	<rect x="171" y="162" fill="#754C24" width="9" height="9"/>
	<rect x="162" y="153" fill="#754C24" width="9" height="9"/>
	<rect x="153" y="144" fill="#754C24" width="9" height="9"/>
	<rect x="144" y="135" fill="#754C24" width="9" height="9"/>
	<rect x="135" y="126" fill="#754C24" width="9" height="9"/>
	<rect x="126" y="117" fill="#754C24" width="9" height="9"/>
	<rect x="117" y="108" fill="#754C24" width="9" height="9"/>
	<rect x="108" y="99" fill="#754C24" width="9" height="9"/>
	<rect x="99" y="90" fill="#754C24" width="9" height="9"/>
	<rect x="90" y="81" fill="#754C24" width="9" height="9"/>
	<rect x="72" y="72" fill="#603813" width="9" height="9"/>
	<rect x="81" y="63" fill="#603813" width="9" height="9"/>
	<rect x="81" y="72" fill="#754C24" width="9" height="9"/>
	<rect x="45" y="36" fill="#E6E6E6" width="36" height="36"/>
	<rect x="36" y="54" fill="#CCCCCC" width="9" height="18"/>
	<rect x="63" y="27" fill="#CCCCCC" width="18" height="9"/>
	<rect x="45" y="72" fill="#CCCCCC" width="9" height="9"/>
	<rect x="36" y="72" fill="#E6E6E6" width="9" height="9"/>
	<rect x="45" y="81" fill="#CCCCCC" width="9" height="9"/>
	<rect x="27" y="72" fill="#CCCCCC" width="9" height="9"/>
	<rect x="27" y="108" fill="#CCCCCC" width="9" height="18"/>
	<rect x="27" y="81" fill="#CCCCCC" width="18" height="27"/>
	<rect x="90" y="18" fill="#CCCCCC" width="27" height="18"/>
	<rect x="117" y="18" fill="#CCCCCC" width="18" height="9"/>
	<rect x="72" y="63" fill="#754C24" width="9" height="9"/>
	<rect x="72" y="54" fill="#603813" width="9" height="9"/>
	<rect x="63" y="63" fill="#603813" width="9" height="9"/>
	<rect x="27" y="82" fill="#B3B3B3" width="9" height="26"/>
	<rect x="36" y="63" fill="#B3B3B3" width="9" height="27"/>
	<rect x="45" y="45" fill="#B3B3B3" width="9" height="27"/>
	<rect x="54" y="36" fill="#B3B3B3" width="27" height="9"/>
	<rect x="72" y="27" fill="#B3B3B3" width="27" height="9"/>
	<rect x="90" y="18" fill="#B3B3B3" width="27" height="9"/>
	<rect x="54" y="45" fill="#CCCCCC" width="9" height="18"/>
	<rect x="63" y="45" fill="#CCCCCC" width="9" height="9"/>
	<rect x="54" y="54" fill="#603813" width="9" height="9"/>
	<rect x="63" y="45" fill="#603813" width="9" height="9"/>
	<rect x="54" y="36" fill="#603813" width="9" height="9"/>
	<rect x="45" y="45" fill="#603813" width="9" height="9"/>
	<rect x="45" y="36" fill="#603813" width="9" height="9"/>
	<rect x="63" y="54" fill="#754C24" width="9" height="9"/>
	<rect x="54" y="45" fill="#754C24" width="9" height="9"/>
	<rect x="45" y="45" fill="#A67C52" width="36" height="9"/>
	<rect x="54" y="36" fill="#A67C52" width="9" height="36"/>
	<rect x="54" y="45" fill="#8C6239" width="9" height="9"/>
</g>
</svg>
