<?xml version="1.0" encoding="utf-8"?>
<!-- Generator: Adobe Illustrator 16.2.0, SVG Export Plug-In . SVG Version: 6.00 Build 0)  -->
<!DOCTYPE svg PUBLIC "-//W3C//DTD SVG 1.1//EN" "http://www.w3.org/Graphics/SVG/1.1/DTD/svg11.dtd">
<svg version="1.1" id="Layer_1" xmlns="http://www.w3.org/2000/svg" xmlns:xlink="http://www.w3.org/1999/xlink" x="0px" y="0px"
	 width="189px" height="81px" viewBox="0 0 189 81" enable-background="new 0 0 189 81" xml:space="preserve">
<g>
	<rect x="18" y="72.001" fill="#FFDC73" width="27" height="8.999"/>
	<rect x="45" y="72.001" fill="#FFCF40" width="9" height="8.999"/>
	<rect x="9" y="72.001" fill="#FFCF40" width="9" height="8.999"/>
	<rect y="72.001" fill="#BF9B30" width="9" height="8.999"/>
	<rect x="54" y="72.001" fill="#BF9B30" width="9" height="8.999"/>
</g>
<g>
	<rect x="18" y="63.001" fill="#FFDC73" width="27" height="8.999"/>
	<rect x="45" y="63.001" fill="#FFCF40" width="9" height="8.999"/>
	<rect x="9" y="63.001" fill="#FFCF40" width="9" height="8.999"/>
	<rect y="63.001" fill="#BF9B30" width="9" height="8.999"/>
	<rect x="54" y="63.001" fill="#BF9B30" width="9" height="8.999"/>
</g>
<g>
	<rect x="27" y="54.001" fill="#FFDC73" width="27" height="8.999"/>
	<rect x="54" y="54.001" fill="#FFCF40" width="9" height="8.999"/>
	<rect x="18" y="54.001" fill="#FFCF40" width="9" height="8.999"/>
	<rect x="9" y="54.001" fill="#BF9B30" width="9" height="8.999"/>
	<rect x="63" y="54.001" fill="#BF9B30" width="9" height="8.999"/>
</g>
<g>
	<rect x="27" y="45.001" fill="#FFDC73" width="27" height="8.999"/>
	<rect x="54" y="45.001" fill="#FFCF40" width="9" height="8.999"/>
	<rect x="18" y="45.001" fill="#FFCF40" width="9" height="8.999"/>
	<rect x="9" y="45.001" fill="#BF9B30" width="9" height="8.999"/>
	<rect x="63" y="45.001" fill="#BF9B30" width="9" height="8.999"/>
</g>
<g>
	<rect x="18" y="36.001" fill="#FFDC73" width="27" height="8.999"/>
	<rect x="45" y="36.001" fill="#FFCF40" width="9" height="8.999"/>
	<rect x="9" y="36.001" fill="#FFCF40" width="9" height="8.999"/>
	<rect y="36.001" fill="#BF9B30" width="9" height="8.999"/>
	<rect x="54" y="36.001" fill="#BF9B30" width="9" height="8.999"/>
</g>
<g>
	<rect x="18" y="27.001" fill="#FFDC73" width="27" height="8.999"/>
	<rect x="45" y="27.001" fill="#FFCF40" width="9" height="8.999"/>
	<rect x="9" y="27.001" fill="#FFCF40" width="9" height="8.999"/>
	<rect y="27.001" fill="#BF9B30" width="9" height="8.999"/>
	<rect x="54" y="27.001" fill="#BF9B30" width="9" height="8.999"/>
</g>
<g>
	<rect x="144" y="72.001" fill="#FFDC73" width="27" height="8.999"/>
	<rect x="171" y="72.001" fill="#FFCF40" width="9" height="8.999"/>
	<rect x="135" y="72.001" fill="#FFCF40" width="9" height="8.999"/>
	<rect x="126" y="72.001" fill="#BF9B30" width="9" height="8.999"/>
	<rect x="180" y="72.001" fill="#BF9B30" width="9" height="8.999"/>
</g>
<g>
	<rect x="135" y="63.001" fill="#FFDC73" width="27" height="8.999"/>
	<rect x="162" y="63.001" fill="#FFCF40" width="9" height="8.999"/>
	<rect x="126" y="63.001" fill="#FFCF40" width="9" height="8.999"/>
	<rect x="117" y="63.001" fill="#BF9B30" width="9" height="8.999"/>
	<rect x="171" y="63.001" fill="#BF9B30" width="9" height="8.999"/>
</g>
<g>
	<rect x="135" y="54.001" fill="#FFDC73" width="27" height="8.999"/>
	<rect x="162" y="54.001" fill="#FFCF40" width="9" height="8.999"/>
	<rect x="126" y="54.001" fill="#FFCF40" width="9" height="8.999"/>
	<rect x="117" y="54.001" fill="#BF9B30" width="9" height="8.999"/>
	<rect x="171" y="54.001" fill="#BF9B30" width="9" height="8.999"/>
</g>
<g>
	<rect x="126" y="45.001" fill="#FFDC73" width="27" height="8.999"/>
	<rect x="153" y="45.001" fill="#FFCF40" width="9" height="8.999"/>
	<rect x="117" y="45.001" fill="#FFCF40" width="9" height="8.999"/>
	<rect x="108" y="45.001" fill="#BF9B30" width="9" height="8.999"/>
	<rect x="162" y="45.001" fill="#BF9B30" width="9" height="8.999"/>
</g>
<g>
	<rect x="126" y="36.001" fill="#FFDC73" width="27" height="8.999"/>
	<rect x="153" y="36.001" fill="#FFCF40" width="9" height="8.999"/>
	<rect x="117" y="36.001" fill="#FFCF40" width="9" height="8.999"/>
	<rect x="108" y="36.001" fill="#BF9B30" width="9" height="8.999"/>
	<rect x="162" y="36.001" fill="#BF9B30" width="9" height="8.999"/>
</g>
<g>
	<rect x="117" y="27.001" fill="#FFDC73" width="27" height="8.999"/>
	<rect x="144" y="27.001" fill="#FFCF40" width="9" height="8.999"/>
	<rect x="108" y="27.001" fill="#FFCF40" width="9" height="8.999"/>
	<rect x="99" y="27.001" fill="#BF9B30" width="9" height="8.999"/>
	<rect x="153" y="27.001" fill="#BF9B30" width="9" height="8.999"/>
</g>
<g>
	<rect x="81" y="72.001" fill="#FFDC73" width="27" height="8.999"/>
	<rect x="108" y="72.001" fill="#FFCF40" width="9" height="8.999"/>
	<rect x="72" y="72.001" fill="#FFCF40" width="9" height="8.999"/>
	<rect x="63" y="72.001" fill="#BF9B30" width="9" height="8.999"/>
	<rect x="117" y="72.001" fill="#BF9B30" width="9" height="8.999"/>
</g>
<g>
	<rect x="81" y="63.001" fill="#FFDC73" width="27" height="8.999"/>
	<rect x="108" y="63.001" fill="#FFCF40" width="9" height="8.999"/>
	<rect x="72" y="63.001" fill="#FFCF40" width="9" height="8.999"/>
	<rect x="63" y="63.001" fill="#BF9B30" width="9" height="8.999"/>
	<rect x="117" y="63.001" fill="#BF9B30" width="9" height="8.999"/>
</g>
<g>
	<rect x="81" y="54.001" fill="#FFDC73" width="27" height="8.999"/>
	<rect x="108" y="54.001" fill="#FFCF40" width="9" height="8.999"/>
	<rect x="72" y="54.001" fill="#FFCF40" width="9" height="8.999"/>
	<rect x="63" y="54.001" fill="#BF9B30" width="9" height="8.999"/>
	<rect x="117" y="54.001" fill="#BF9B30" width="9" height="8.999"/>
</g>
<g>
	<rect x="81" y="45.001" fill="#FFDC73" width="27" height="8.999"/>
	<rect x="108" y="45.001" fill="#FFCF40" width="9" height="8.999"/>
	<rect x="72" y="45.001" fill="#FFCF40" width="9" height="8.999"/>
	<rect x="63" y="45.001" fill="#BF9B30" width="9" height="8.999"/>
	<rect x="117" y="45.001" fill="#BF9B30" width="9" height="8.999"/>
</g>
<g>
	<rect x="72" y="36.001" fill="#FFDC73" width="27" height="8.999"/>
	<rect x="99" y="36.001" fill="#FFCF40" width="9" height="8.999"/>
	<rect x="63" y="36.001" fill="#FFCF40" width="9" height="8.999"/>
	<rect x="54" y="36.001" fill="#BF9B30" width="9" height="8.999"/>
	<rect x="108" y="36.001" fill="#BF9B30" width="9" height="8.999"/>
</g>
<g>
	<rect x="72" y="27.001" fill="#FFDC73" width="27" height="8.999"/>
	<rect x="99" y="27.001" fill="#FFCF40" width="9" height="8.999"/>
	<rect x="63" y="27.001" fill="#FFCF40" width="9" height="8.999"/>
	<rect x="54" y="27.001" fill="#BF9B30" width="9" height="8.999"/>
	<rect x="108" y="27.001" fill="#BF9B30" width="9" height="8.999"/>
</g>
<g>
	<rect x="72" y="18.001" fill="#FFDC73" width="27" height="8.999"/>
	<rect x="99" y="18.001" fill="#FFCF40" width="9" height="8.999"/>
	<rect x="63" y="18.001" fill="#FFCF40" width="9" height="8.999"/>
	<rect x="54" y="18.001" fill="#BF9B30" width="9" height="8.999"/>
	<rect x="108" y="18.001" fill="#BF9B30" width="9" height="8.999"/>
</g>
<g>
	<rect x="72" y="9.001" fill="#FFDC73" width="27" height="8.999"/>
	<rect x="99" y="9.001" fill="#FFCF40" width="9" height="8.999"/>
	<rect x="63" y="9.001" fill="#FFCF40" width="9" height="8.999"/>
	<rect x="54" y="9.001" fill="#BF9B30" width="9" height="8.999"/>
	<rect x="108" y="9.001" fill="#BF9B30" width="9" height="8.999"/>
</g>
<rect x="63" y="0.001" fill="#BF9B30" width="45" height="8.999"/>
<rect x="117" y="18.001" fill="#BF9B30" width="36" height="8.999"/>
<rect x="9" y="18.001" fill="#BF9B30" width="45" height="8.999"/>
<g>
	<rect x="108" y="27" fill="#FFCF40" width="27" height="45"/>
	<rect x="99" y="36" fill="#FFCF40" width="45" height="27"/>
	<rect x="135" y="36" fill="#FFDC73" width="9" height="27"/>
	<rect x="108" y="63.001" fill="#FFDC73" width="27" height="8.999"/>
	<rect x="99" y="36" fill="#FFBF00" width="9" height="27"/>
	<rect x="108" y="27" fill="#FFBF00" width="27" height="9"/>
	<rect x="108" y="72.001" fill="#BF9B30" width="27" height="8.999"/>
	<rect x="108" y="18.001" fill="#BF9B30" width="27" height="8.999"/>
	<rect x="135" y="63.001" fill="#BF9B30" width="9" height="8.999"/>
	<rect x="135" y="27.001" fill="#BF9B30" width="9" height="8.999"/>
	<rect x="99" y="27.001" fill="#BF9B30" width="9" height="8.999"/>
	<rect x="90" y="36.004" fill="#BF9B30" width="9" height="26.998"/>
	<rect x="99" y="63.001" fill="#BF9B30" width="9" height="8.999"/>
	<rect x="144" y="36.005" fill="#BF9B30" width="9" height="26.997"/>
</g>
</svg>
