<?xml version="1.0" encoding="utf-8"?>
<!-- Generator: Adobe Illustrator 16.2.0, SVG Export Plug-In . SVG Version: 6.00 Build 0)  -->
<!DOCTYPE svg PUBLIC "-//W3C//DTD SVG 1.1//EN" "http://www.w3.org/Graphics/SVG/1.1/DTD/svg11.dtd">
<svg version="1.1" id="Layer_1" xmlns="http://www.w3.org/2000/svg" xmlns:xlink="http://www.w3.org/1999/xlink" x="0px" y="0px"
	 width="162px" height="162px" viewBox="0 0 162 162" enable-background="new 0 0 162 162" xml:space="preserve">
<g>
	<rect x="54" fill="#CCCCCC" width="18" height="27"/>
	<rect x="144" y="153" fill="#603813" width="18" height="9"/>
	<rect x="153" y="144" fill="#603813" width="9" height="9"/>
	<rect x="144" y="135" fill="#603813" width="9" height="9"/>
	<rect x="135" y="144" fill="#603813" width="9" height="9"/>
	<rect x="126" y="135" fill="#603813" width="9" height="9"/>
	<rect x="135" y="126" fill="#603813" width="9" height="9"/>
	<rect x="117" y="126" fill="#603813" width="9" height="9"/>
	<rect x="126" y="117" fill="#603813" width="9" height="9"/>
	<rect x="108" y="117" fill="#603813" width="9" height="9"/>
	<rect x="117" y="108" fill="#603813" width="9" height="9"/>
	<rect x="99" y="108" fill="#603813" width="9" height="9"/>
	<rect x="108" y="99" fill="#603813" width="9" height="9"/>
	<rect x="99" y="90" fill="#603813" width="9" height="9"/>
	<rect x="90" y="99" fill="#603813" width="9" height="9"/>
	<rect x="81" y="90" fill="#603813" width="9" height="9"/>
	<rect x="90" y="81" fill="#603813" width="9" height="9"/>
	<rect x="72" y="81" fill="#603813" width="9" height="9"/>
	<rect x="81" y="72" fill="#603813" width="9" height="9"/>
	<rect x="72" y="63" fill="#603813" width="9" height="9"/>
	<rect x="63" y="72" fill="#603813" width="9" height="9"/>
	<rect x="54" y="63" fill="#603813" width="9" height="9"/>
	<rect x="63" y="54" fill="#603813" width="9" height="9"/>
	<rect x="144" y="144" fill="#754C24" width="9" height="9"/>
	<rect x="135" y="135" fill="#754C24" width="9" height="9"/>
	<rect x="126" y="126" fill="#754C24" width="9" height="9"/>
	<rect x="117" y="117" fill="#754C24" width="9" height="9"/>
	<rect x="108" y="108" fill="#754C24" width="9" height="9"/>
	<rect x="99" y="99" fill="#754C24" width="9" height="9"/>
	<rect x="90" y="90" fill="#754C24" width="9" height="9"/>
	<rect x="81" y="81" fill="#754C24" width="9" height="9"/>
	<rect x="72" y="72" fill="#754C24" width="9" height="9"/>
	<rect x="63" y="63" fill="#754C24" width="9" height="9"/>
	<rect x="45" y="54" fill="#603813" width="9" height="9"/>
	<rect x="54" y="45" fill="#603813" width="9" height="9"/>
	<rect x="54" y="54" fill="#754C24" width="9" height="9"/>
	<rect x="18" y="18" fill="#E6E6E6" width="36" height="36"/>
	<rect x="9" y="36" fill="#CCCCCC" width="9" height="18"/>
	<rect x="36" y="9" fill="#CCCCCC" width="18" height="9"/>
	<rect x="18" y="54" fill="#CCCCCC" width="9" height="9"/>
	<rect x="9" y="54" fill="#E6E6E6" width="9" height="9"/>
	<rect x="18" y="63" fill="#CCCCCC" width="9" height="9"/>
	<rect y="54" fill="#CCCCCC" width="9" height="9"/>
	<rect y="90" fill="#CCCCCC" width="9" height="18"/>
	<rect y="63" fill="#CCCCCC" width="18" height="27"/>
	<rect x="63" fill="#CCCCCC" width="27" height="18"/>
	<rect x="90" fill="#CCCCCC" width="18" height="9"/>
	<rect x="45" y="45" fill="#754C24" width="9" height="9"/>
	<rect x="45" y="36" fill="#603813" width="9" height="9"/>
	<rect x="36" y="45" fill="#603813" width="9" height="9"/>
	<rect y="64" fill="#B3B3B3" width="9" height="26"/>
	<rect x="9" y="45" fill="#B3B3B3" width="9" height="27"/>
	<rect x="18" y="27" fill="#B3B3B3" width="9" height="27"/>
	<rect x="27" y="18" fill="#B3B3B3" width="27" height="9"/>
	<rect x="45" y="9" fill="#B3B3B3" width="27" height="9"/>
	<rect x="63" fill="#B3B3B3" width="27" height="9"/>
	<rect x="27" y="27" fill="#CCCCCC" width="9" height="18"/>
	<rect x="36" y="27" fill="#CCCCCC" width="9" height="9"/>
	<rect x="27" y="36" fill="#603813" width="9" height="9"/>
	<rect x="36" y="27" fill="#603813" width="9" height="9"/>
	<rect x="27" y="18" fill="#603813" width="9" height="9"/>
	<rect x="18" y="27" fill="#603813" width="9" height="9"/>
	<rect x="18" y="18" fill="#603813" width="9" height="9"/>
	<rect x="36" y="36" fill="#754C24" width="9" height="9"/>
	<rect x="27" y="27" fill="#754C24" width="9" height="9"/>
	<rect x="18" y="27" fill="#A67C52" width="36" height="9"/>
	<rect x="27" y="18" fill="#A67C52" width="9" height="36"/>
	<rect x="27" y="27" fill="#8C6239" width="9" height="9"/>
</g>
</svg>
